<svg fill="none" height="400" viewBox="0 0 400 400" width="400" xmlns="http://www.w3.org/2000/svg"><g stroke="#000" stroke-linecap="round" stroke-linejoin="round" stroke-opacity=".9" stroke-width="16"><path d="m158.783 198.955c-1.686 2.735-12.938 10.643-21.984 21.072-9.053 10.437-15.9 23.394-17.228 25.843-.995 1.831-2.027 3.633-3.064 5.431-1.003-3.367-2.075-6.704-3.2-10.025-2.02-5.955-4.006-11.926-6.19-17.801-.912-2.453-1.766-4.955-2.768-7.365-1.37-3.282-2.737-6.568-4.107-9.85-1.4349-3.449-3.1024-6.752-4.699-10.098-.6386-1.345-1.23-2.747-1.9404-4.043-1.1723-2.145-2.3481-4.289-3.5239-6.435-3.0471-5.568-6.3891-10.871-9.8124-16.109-.447-1.907-1.2633-3.699-2.4487-5.058-.0962-.113-.1951-.224-.2904-.333-.5495-.649-10.6263.619-17.0875-1.457-7.0882-2.278-10.6228-7.893-11.4397-8.165"/><path d="m233.435 195.765c2.673.996 5.447 1.943 7.742 3.647 2.383 1.771 4.725 3.535 6.85 5.598 1.765 1.712 3.442 3.503 5.007 5.387 1.769 2.131 3.579 4.259 5.206 6.49l6.788 9.321c2.18 2.992 4.364 5.979 6.543 8.966 1.503 2.06 3.133 4.041 4.739 6.031-.164-.206-.327-.41-.492-.616 2.097 2.391 4.168 4.787 6.39 7.074 2.097 2.156 4.288 4.216 6.518 6.247 1.744 1.592 3.496 3.173 5.281 4.72 4.002-9.63 8.099-19.216 12.438-28.715 4.037-8.838 8.202-17.615 12.227-26.457 1.843-4.618 3.648-9.231 5.31-13.916.871-2.452 1.718-4.911 2.624-7.35.452-1.224.904-2.447 1.423-3.651.873-2.02 1.587-4.151 3.256-5.722 5.033-.725 8.808-1.574 11.325-2.546 2.518-.971 5.647-2.788 9.39-5.451"/><path d="m159 198.534c-.01 4.858-.198 9.72-.658 14.562-.303 3.185-.602 6.37-.96 9.552-.738 6.56 5.249 66.803 5.249 69.645 0 2.268-.195 4.527-.467 6.782-.08.529-.155 1.059-.229 1.589-.034.242-.069.488-.038.731.003.986.247 1.917.736 2.784"/><path d="m233.435 195.603c.578 1.936 1.215 3.887 1.619 5.847.407 1.977 10.212 88.443 11.015 92.232.281 2.307.545 4.598.54 6.915-.005 1.31-.015 2.616-.048 3.925-.014.829-.047 1.649.01 2.478"/><path d="m167.39 113.123c10.294-13.3524 23.393-23.181 41.347-19.2471 50.596 11.0841 40.864 89.3221-9.187 92.8461-40.527 2.855-55.689-66.187-22.972-75.864"/></g></svg>